<svg width="40" height="41" viewBox="0 0 40 41" fill="none" xmlns="http://www.w3.org/2000/svg">
<g id="instagram">
<path id="Vector" d="M28.3334 3.83337H11.6667C7.06433 3.83337 3.33337 7.56433 3.33337 12.1667V28.8334C3.33337 33.4357 7.06433 37.1667 11.6667 37.1667H28.3334C32.9357 37.1667 36.6667 33.4357 36.6667 28.8334V12.1667C36.6667 7.56433 32.9357 3.83337 28.3334 3.83337Z" stroke="black" stroke-width="2" stroke-linecap="round" stroke-linejoin="round"/>
<path id="Vector_2" d="M26.6666 19.45C26.8723 20.8371 26.6354 22.2537 25.9896 23.4984C25.3437 24.743 24.3219 25.7524 23.0693 26.3828C21.8168 27.0132 20.3974 27.2327 19.0129 27.0099C17.6285 26.7871 16.3496 26.1335 15.358 25.1419C14.3665 24.1504 13.7128 22.8715 13.4901 21.487C13.2673 20.1026 13.4867 18.6832 14.1172 17.4306C14.7476 16.1781 15.7569 15.1562 17.0016 14.5104C18.2463 13.8646 19.6629 13.6277 21.05 13.8333C22.4648 14.0432 23.7747 14.7025 24.7861 15.7139C25.7975 16.7253 26.4568 18.0351 26.6666 19.45Z" stroke="black" stroke-width="2" stroke-linecap="round" stroke-linejoin="round"/>
<path id="Vector_3" d="M29.1666 11.3334H29.1833" stroke="black" stroke-width="2" stroke-linecap="round" stroke-linejoin="round"/>
</g>
</svg>
