<svg width="25" height="25" viewBox="0 0 25 25" fill="none" xmlns="http://www.w3.org/2000/svg">
<path id="Vector" d="M13.785 0C15.1912 0.00374991 15.9049 0.0112497 16.5211 0.0287493L16.7636 0.0374991C17.0436 0.0474989 17.3198 0.0599985 17.6536 0.0749982C18.9835 0.137497 19.891 0.347492 20.6872 0.656235C21.5121 0.973727 22.2071 1.40372 22.902 2.09745C23.5376 2.72231 24.0294 3.47815 24.3432 4.3124C24.652 5.10863 24.8619 6.01611 24.9244 7.34733C24.9394 7.67982 24.9519 7.95606 24.9619 8.23731L24.9694 8.4798C24.9882 9.09479 24.9957 9.80852 24.9982 11.2147L24.9994 12.1472V13.7847C25.0025 14.6964 24.9929 15.6081 24.9707 16.5196L24.9632 16.7621C24.9532 17.0434 24.9407 17.3196 24.9257 17.6521C24.8632 18.9833 24.6507 19.8895 24.3432 20.687C24.0303 21.5217 23.5384 22.2778 22.902 22.902C22.277 23.5373 21.5213 24.0291 20.6872 24.3432C19.891 24.6519 18.9835 24.8619 17.6536 24.9244C17.357 24.9384 17.0603 24.9509 16.7636 24.9619L16.5211 24.9694C15.9049 24.9869 15.1912 24.9957 13.785 24.9982L12.8526 24.9994H11.2164C10.3043 25.0026 9.39215 24.993 8.48029 24.9707L8.2378 24.9632C7.94108 24.9519 7.64442 24.939 7.34784 24.9244C6.01791 24.8619 5.11046 24.6519 4.313 24.3432C3.47888 24.0299 2.72335 23.538 2.09936 22.902C1.4632 22.2773 0.970952 21.5214 0.656938 20.687C0.348203 19.8908 0.138214 18.9833 0.0757173 17.6521C0.0617915 17.3555 0.0492921 17.0588 0.0382193 16.7621L0.0319697 16.5196C0.00893597 15.6082 -0.00148128 14.6964 0.000721214 13.7847V11.2147C-0.00276731 10.303 0.00639986 9.39128 0.0282199 8.4798L0.0369694 8.23731C0.0469689 7.95606 0.0594682 7.67982 0.0744675 7.34733C0.136964 6.01611 0.346953 5.10988 0.655688 4.3124C0.969564 3.4773 1.4628 2.72122 2.10061 2.09745C2.72445 1.46181 3.47947 0.969961 4.313 0.656235C5.11046 0.347492 6.01666 0.137497 7.34784 0.0749982C7.68033 0.0599985 7.95781 0.0474989 8.2378 0.0374991L8.48029 0.0299992C9.39173 0.0077907 10.3034 -0.00179333 11.2151 0.00124988L13.785 0ZM12.5001 6.24985C10.8426 6.24985 9.25293 6.90832 8.08089 8.08039C6.90885 9.25247 6.2504 10.8421 6.2504 12.4997C6.2504 14.1573 6.90885 15.7469 8.08089 16.919C9.25293 18.0911 10.8426 18.7496 12.5001 18.7496C14.1576 18.7496 15.7472 18.0911 16.9193 16.919C18.0913 15.7469 18.7498 14.1573 18.7498 12.4997C18.7498 10.8421 18.0913 9.25247 16.9193 8.08039C15.7472 6.90832 14.1576 6.24985 12.5001 6.24985ZM12.5001 8.7498C12.9925 8.74971 13.4801 8.84663 13.9351 9.035C14.3901 9.22338 14.8035 9.49953 15.1518 9.84768C15.5 10.1958 15.7763 10.6092 15.9648 11.0641C16.1534 11.519 16.2504 12.0066 16.2505 12.4991C16.2506 12.9915 16.1537 13.4792 15.9653 13.9342C15.7769 14.3892 15.5008 14.8026 15.1527 15.1509C14.8045 15.4991 14.3912 15.7754 13.9363 15.9639C13.4814 16.1525 12.9938 16.2495 12.5013 16.2496C11.5068 16.2496 10.553 15.8545 9.84982 15.1513C9.14659 14.4481 8.75152 13.4942 8.75152 12.4997C8.75152 11.5052 9.14659 10.5514 9.84982 9.84812C10.553 9.14487 11.5068 8.7498 12.5013 8.7498M19.0635 4.3749C18.6491 4.3749 18.2517 4.53951 17.9587 4.83253C17.6657 5.12555 17.5011 5.52297 17.5011 5.93736C17.5011 6.35175 17.6657 6.74917 17.9587 7.04219C18.2517 7.33521 18.6491 7.49983 19.0635 7.49983C19.4779 7.49983 19.8753 7.33521 20.1683 7.04219C20.4613 6.74917 20.6259 6.35175 20.6259 5.93736C20.6259 5.52297 20.4613 5.12555 20.1683 4.83253C19.8753 4.53951 19.4779 4.3749 19.0635 4.3749Z" fill="white"/>
</svg>
