<svg width="40" height="41" viewBox="0 0 40 41" fill="none" xmlns="http://www.w3.org/2000/svg">
<g id="linkedin">
<path id="Vector" d="M26.6666 13.8334C29.3188 13.8334 31.8623 14.8869 33.7377 16.7623C35.6131 18.6377 36.6666 21.1812 36.6666 23.8334V35.5H30V23.8334C30 22.9493 29.6488 22.1015 29.0236 21.4764C28.3985 20.8512 27.5507 20.5 26.6666 20.5C25.7826 20.5 24.9347 20.8512 24.3096 21.4764C23.6845 22.1015 23.3333 22.9493 23.3333 23.8334V35.5H16.6666V23.8334C16.6666 21.1812 17.7202 18.6377 19.5956 16.7623C21.4709 14.8869 24.0145 13.8334 26.6666 13.8334Z" stroke="black" stroke-width="2" stroke-linecap="round" stroke-linejoin="round"/>
<path id="Vector_2" d="M10 15.5H3.33337V35.5H10V15.5Z" stroke="black" stroke-width="2" stroke-linecap="round" stroke-linejoin="round"/>
<path id="Vector_3" d="M6.66671 10.5C8.50766 10.5 10 9.00766 10 7.16671C10 5.32576 8.50766 3.83337 6.66671 3.83337C4.82576 3.83337 3.33337 5.32576 3.33337 7.16671C3.33337 9.00766 4.82576 10.5 6.66671 10.5Z" stroke="black" stroke-width="2" stroke-linecap="round" stroke-linejoin="round"/>
</g>
</svg>
